<svg xmlns="http://www.w3.org/2000/svg" xmlns:xlink="http://www.w3.org/1999/xlink" preserveAspectRatio="xMidYMid" width="36" height="35" viewBox="0 0 36 35">
  <defs>
    <style>
      .cls-1 {
        fill: #fff;
        fill-rule: evenodd;
      }
    </style>
  </defs>
  <path d="M32.400,35.000 L3.600,35.000 C1.611,35.000 -0.001,33.378 -0.001,31.379 L-0.000,14.894 C-0.000,12.900 2.012,11.000 4.000,11.000 L6.000,11.000 L16.192,2.987 C16.146,2.800 16.114,2.607 16.114,2.406 C16.114,1.077 17.188,-0.000 18.514,-0.000 C19.839,-0.000 20.914,1.077 20.914,2.406 C20.914,2.839 20.791,3.239 20.591,3.590 L30.000,11.000 L32.000,11.000 C33.988,11.000 35.999,12.483 35.999,14.482 L35.999,31.379 C35.999,33.378 34.388,35.000 32.400,35.000 ZM19.286,27.255 L24.123,27.255 L24.123,26.341 L20.307,26.341 L20.307,19.476 L19.286,19.476 L19.286,27.255 ZM12.363,27.255 L13.210,24.898 L16.460,24.898 L17.351,27.255 L18.516,27.255 L15.363,19.476 L14.255,19.476 L11.282,27.255 L12.363,27.255 ZM5.210,20.389 C4.989,20.731 4.878,21.099 4.878,21.492 C4.878,21.850 4.969,22.173 5.149,22.462 C5.330,22.751 5.604,22.993 5.973,23.188 C6.257,23.340 6.753,23.502 7.460,23.674 C8.168,23.845 8.625,23.972 8.832,24.053 C9.154,24.177 9.387,24.330 9.530,24.511 C9.673,24.693 9.744,24.905 9.744,25.149 C9.744,25.389 9.671,25.611 9.526,25.815 C9.380,26.019 9.159,26.180 8.861,26.297 C8.563,26.414 8.219,26.473 7.830,26.473 C7.392,26.473 6.998,26.396 6.647,26.241 C6.297,26.086 6.038,25.884 5.872,25.634 C5.705,25.383 5.599,25.063 5.553,24.672 L4.588,24.756 C4.602,25.276 4.743,25.742 5.012,26.154 C5.280,26.566 5.650,26.875 6.122,27.080 C6.593,27.285 7.178,27.387 7.877,27.387 C8.427,27.387 8.923,27.286 9.363,27.083 C9.803,26.880 10.141,26.596 10.376,26.230 C10.611,25.865 10.728,25.475 10.728,25.063 C10.728,24.646 10.621,24.278 10.406,23.958 C10.191,23.639 9.858,23.375 9.407,23.166 C9.097,23.025 8.528,22.860 7.700,22.671 C6.871,22.482 6.359,22.297 6.162,22.116 C5.963,21.936 5.863,21.706 5.863,21.427 C5.863,21.104 6.004,20.830 6.286,20.601 C6.568,20.373 7.017,20.259 7.634,20.259 C8.226,20.259 8.673,20.384 8.976,20.633 C9.279,20.882 9.457,21.251 9.510,21.739 L10.494,21.664 C10.477,21.209 10.350,20.801 10.115,20.441 C9.880,20.081 9.544,19.808 9.107,19.622 C8.671,19.437 8.166,19.345 7.594,19.345 C7.075,19.345 6.603,19.433 6.178,19.610 C5.754,19.787 5.431,20.047 5.210,20.389 ZM20.000,4.000 C19.588,4.333 19.084,4.813 18.514,4.813 C17.719,4.813 17.021,4.421 16.584,3.825 L7.000,11.000 L29.000,11.000 L20.000,4.000 ZM31.123,26.341 L26.379,26.341 L26.379,23.691 L30.654,23.691 L30.654,22.777 L26.379,22.777 L26.379,20.391 L30.945,20.391 L30.945,19.476 L25.358,19.476 L25.358,27.255 L31.123,27.255 L31.123,26.341 ZM14.777,20.287 C14.901,20.712 15.084,21.253 15.326,21.908 L16.140,24.059 L13.501,24.059 L14.359,21.782 C14.536,21.290 14.675,20.792 14.777,20.287 Z" class="cls-1"/>
</svg>
