<svg xmlns="http://www.w3.org/2000/svg" xmlns:xlink="http://www.w3.org/1999/xlink" preserveAspectRatio="xMidYMid" width="132" height="56" viewBox="0 0 132 56">
  <defs>
    <style>
      .cls-1 {
        fill: #444;
        fill-rule: evenodd;
      }
    </style>
  </defs>
  <path d="M118.461,44.222 C93.944,54.947 23.068,45.532 20.740,45.394 C20.739,45.394 20.737,45.394 20.736,45.394 C18.556,45.265 16.341,45.139 15.934,45.139 C14.852,45.139 14.085,45.488 13.634,46.185 C13.363,46.580 13.228,46.958 13.228,47.322 C13.228,48.201 13.994,49.139 15.528,50.140 C16.370,50.685 16.792,51.533 16.792,52.685 C16.792,53.594 16.453,54.374 15.777,55.025 C15.100,55.677 14.280,56.003 13.318,56.003 C12.445,56.003 11.633,55.730 10.882,55.185 C9.016,53.851 8.084,51.988 8.084,49.594 C8.084,47.897 8.670,46.231 9.843,44.595 C10.595,43.533 11.739,42.670 13.273,42.004 C14.686,41.397 16.100,41.094 17.513,41.094 C18.104,41.094 18.655,41.122 19.181,41.164 C19.181,41.164 19.180,41.163 19.180,41.161 C37.462,41.268 96.822,45.719 111.716,42.826 C120.800,41.062 125.392,37.073 127.700,33.762 C124.171,36.825 120.920,38.375 117.955,38.375 C116.962,38.375 116.090,38.162 115.338,37.738 C114.316,37.163 113.518,36.269 112.947,35.057 C112.465,34.056 112.284,33.209 112.405,32.511 C112.525,31.755 112.616,31.255 112.676,31.012 C112.803,30.673 113.007,30.357 113.281,30.063 C112.819,30.489 108.714,34.475 106.276,36.465 C105.163,37.346 104.170,37.784 103.298,37.784 C102.636,37.784 101.944,37.557 101.223,37.102 C100.350,36.527 99.748,36.239 99.418,36.239 C98.967,36.239 98.320,36.542 97.477,37.148 C96.876,37.572 96.379,37.784 95.989,37.784 C95.237,37.784 94.890,37.268 94.951,36.239 C95.041,34.905 96.485,32.618 99.282,29.376 C101.418,26.921 103.553,24.785 105.689,22.966 C104.757,22.997 104.072,22.815 103.637,22.421 C103.200,22.028 102.771,21.830 102.350,21.830 C101.749,21.830 101.132,22.179 100.500,22.876 C99.018,24.485 93.359,31.248 91.523,32.966 C87.642,36.573 84.092,38.375 80.875,38.375 C79.882,38.375 79.009,38.162 78.258,37.738 C77.235,37.163 76.437,36.269 75.866,35.057 C75.385,34.056 75.204,33.209 75.325,32.511 C75.444,31.755 75.535,31.255 75.596,31.012 C75.722,30.673 75.926,30.357 76.200,30.063 C76.008,30.239 74.360,31.985 73.312,32.966 C69.431,36.573 65.881,38.375 62.663,38.375 C61.671,38.375 60.798,38.162 60.047,37.738 C59.024,37.163 58.226,36.269 57.655,35.057 C57.173,34.056 56.993,33.209 57.113,32.511 C57.233,31.755 57.324,31.255 57.385,31.012 C57.511,30.673 57.715,30.357 57.989,30.063 C57.873,30.169 57.765,30.263 57.661,30.348 C54.876,33.658 52.023,36.037 49.100,37.466 C48.257,37.890 47.445,38.102 46.663,38.102 C45.519,38.102 44.610,37.692 43.933,36.874 C43.257,36.056 42.963,35.209 43.054,34.330 C43.263,32.420 44.798,29.664 47.655,26.058 C48.768,24.664 49.325,23.573 49.325,22.785 C49.325,22.028 48.678,21.648 47.385,21.648 C44.136,25.921 41.820,28.739 40.437,30.102 C40.369,30.170 40.301,30.210 40.234,30.262 C40.046,30.759 39.840,31.264 39.604,31.785 C38.792,33.633 37.333,35.163 35.228,36.375 C33.122,37.587 31.016,38.193 28.911,38.193 C27.347,38.193 26.038,37.815 24.986,37.057 C23.060,35.663 21.887,34.087 21.466,32.330 C19.180,35.178 16.819,37.057 14.383,37.966 C13.089,38.450 11.434,38.693 9.420,38.693 C8.005,38.693 6.592,38.390 5.178,37.784 C3.644,37.118 2.501,36.254 1.749,35.193 C0.576,33.557 -0.010,31.890 -0.010,30.194 C-0.010,27.800 0.922,25.937 2.787,24.603 C3.539,24.058 4.351,23.785 5.223,23.785 C6.186,23.785 7.006,24.111 7.683,24.762 C8.359,25.414 8.698,26.194 8.698,27.103 C8.698,28.254 8.276,29.102 7.434,29.648 C5.900,30.648 5.133,31.587 5.133,32.466 C5.133,32.829 5.269,33.209 5.540,33.602 C5.991,34.299 6.758,34.648 7.840,34.648 C8.682,34.648 9.570,34.391 10.503,33.875 C12.247,32.905 13.781,31.527 15.104,29.739 C15.917,28.618 17.225,26.421 19.030,23.148 C21.165,19.300 23.105,16.043 24.850,13.376 C27.106,9.892 29.331,7.074 31.528,4.922 C30.685,4.740 29.828,4.650 28.956,4.650 C26.941,4.650 24.970,5.075 23.045,5.922 C20.067,7.195 17.871,8.619 16.458,10.195 C15.224,11.558 14.412,13.240 14.022,15.240 C13.932,15.694 13.886,16.134 13.886,16.558 C13.886,18.497 14.789,19.725 16.593,20.239 C17.556,20.512 18.037,20.967 18.037,21.603 C18.037,22.512 17.601,23.119 16.729,23.421 C16.488,23.512 16.217,23.557 15.917,23.557 C14.683,23.557 13.645,22.982 12.803,21.830 C11.841,20.498 11.360,18.998 11.360,17.331 C11.360,16.422 11.645,14.861 12.217,12.649 C12.788,10.529 14.563,8.331 17.541,6.059 C21.180,3.331 25.121,1.968 29.362,1.968 C31.317,1.968 33.062,2.090 34.596,2.332 C36.821,1.090 38.160,0.408 38.611,0.286 C39.754,-0.047 40.491,-0.092 40.822,0.150 C41.002,0.271 41.093,0.423 41.093,0.605 C41.093,0.968 40.671,1.423 39.829,1.968 C39.498,2.181 38.897,2.575 38.025,3.150 C40.100,3.908 41.874,5.362 43.349,7.513 C43.920,8.331 44.206,9.437 44.206,10.831 C44.206,12.892 43.770,14.483 42.898,15.604 C41.785,17.028 40.355,18.180 38.611,19.058 C39.634,20.058 40.326,20.983 40.687,21.830 C41.108,22.801 41.319,23.876 41.319,25.058 C41.319,25.442 41.290,25.840 41.247,26.245 C41.477,25.967 41.690,25.706 41.880,25.466 C43.114,23.891 44.166,22.361 45.038,20.876 C44.346,20.301 44.001,19.589 44.001,18.740 C44.001,18.043 44.226,17.240 44.678,16.331 C45.429,14.876 46.528,14.149 47.971,14.149 C48.513,14.149 48.971,14.301 49.347,14.604 C49.723,14.907 49.912,15.376 49.912,16.013 C49.912,16.649 49.731,17.346 49.370,18.103 C50.151,18.558 51.325,18.528 52.889,18.013 C54.213,17.558 55.145,17.331 55.686,17.331 C56.498,17.331 56.979,17.679 57.130,18.376 C57.190,18.619 57.221,18.861 57.221,19.103 C57.221,19.619 57.069,20.187 56.770,20.808 C56.469,21.429 56.167,22.028 55.867,22.603 C54.874,24.724 53.761,27.179 52.529,29.966 C52.167,30.966 52.167,31.573 52.529,31.785 C53.040,31.785 53.491,31.527 53.882,31.012 C54.422,30.514 58.418,26.431 59.527,25.103 C61.197,23.103 62.904,21.452 64.649,20.149 C67.114,18.270 69.310,17.331 71.236,17.331 C72.499,17.331 73.507,17.710 74.259,18.467 C75.101,19.316 75.522,20.225 75.522,21.194 C75.522,22.649 74.620,24.346 72.815,26.285 C70.318,28.951 67.446,30.800 64.197,31.830 C64.046,33.496 64.649,34.345 66.002,34.375 C66.844,34.405 67.912,34.042 69.205,33.284 C70.379,32.557 76.069,27.103 77.739,25.103 C79.408,23.103 81.115,21.452 82.860,20.149 C85.326,18.270 87.521,17.331 89.447,17.331 C90.710,17.331 91.718,17.710 92.470,18.467 C93.312,19.316 93.733,20.225 93.733,21.194 C93.733,22.649 92.831,24.346 91.026,26.285 C88.529,28.951 85.657,30.800 82.408,31.830 C82.258,33.496 82.860,34.345 84.213,34.375 C85.055,34.405 86.123,34.042 87.417,33.284 C88.590,32.557 89.612,31.739 90.485,30.829 C91.628,29.588 95.688,25.255 99.237,21.194 C100.891,19.285 101.869,18.194 102.170,17.922 C102.952,17.255 103.824,16.876 104.787,16.785 C105.629,16.725 106.501,16.952 107.403,17.467 C108.547,18.164 109.163,18.528 109.254,18.558 C109.734,18.679 110.080,18.740 110.292,18.740 C110.892,18.740 111.690,18.331 112.683,17.513 C112.983,17.270 113.299,17.149 113.630,17.149 C114.291,17.149 114.623,17.437 114.623,18.013 C114.623,18.437 114.381,18.831 113.901,19.194 C111.825,20.801 109.705,22.588 107.539,24.558 C105.734,26.224 104.674,27.285 104.358,27.739 C104.043,28.194 103.885,28.588 103.885,28.921 C103.885,29.193 103.989,29.436 104.201,29.648 C104.621,29.739 105.313,29.966 106.276,30.330 C106.396,30.391 106.742,30.603 107.314,30.966 C107.675,31.209 108.036,31.315 108.396,31.284 C108.833,31.255 111.405,28.797 111.435,28.770 C111.461,28.744 113.444,26.751 114.819,25.103 C116.489,23.103 118.196,21.452 119.941,20.149 C122.406,18.270 124.602,17.331 126.527,17.331 C127.791,17.331 128.798,17.710 129.550,18.467 C130.393,19.316 130.814,20.225 130.814,21.194 C130.814,22.649 129.912,24.346 128.107,26.285 C125.610,28.951 122.737,30.800 119.489,31.830 C119.338,33.496 119.941,34.345 121.294,34.375 C122.136,34.405 123.204,34.042 124.497,33.284 C125.670,32.557 126.692,31.739 127.565,30.829 C128.708,29.588 129.483,28.838 129.889,28.579 C130.295,28.323 130.543,28.194 130.634,28.194 C130.873,28.194 131.175,28.315 131.536,28.558 C131.640,28.641 131.695,28.746 131.727,28.859 C132.992,30.994 130.198,39.086 118.461,44.222 ZM36.175,6.650 C35.784,6.407 35.333,6.165 34.822,5.922 C34.159,6.589 33.483,7.362 32.791,8.241 C31.828,9.453 30.851,11.619 29.858,14.740 C28.474,18.892 27.347,21.921 26.474,23.830 C27.587,23.315 28.430,22.982 29.001,22.830 C29.272,22.770 29.512,22.739 29.723,22.739 C30.384,22.739 30.716,23.057 30.716,23.694 C30.716,24.330 30.234,24.739 29.272,24.921 C28.099,25.133 26.760,25.952 25.256,27.376 C24.324,28.254 23.858,29.361 23.858,30.693 C23.858,31.421 24.068,31.982 24.489,32.375 C25.451,33.284 26.444,33.739 27.467,33.739 C28.610,33.739 29.813,33.087 31.076,31.785 C31.708,31.117 32.339,30.118 32.972,28.784 C33.723,27.088 34.099,25.512 34.099,24.058 C34.099,23.724 34.069,23.391 34.010,23.057 C33.798,21.543 33.332,20.603 32.611,20.239 C32.611,20.210 31.933,20.088 30.580,19.876 C29.738,19.876 29.317,19.407 29.317,18.467 C29.317,17.498 29.918,16.907 31.122,16.695 C32.084,16.664 33.046,16.619 34.010,16.558 C35.934,16.316 37.273,14.679 38.025,11.649 C38.115,11.285 38.160,10.907 38.160,10.513 C38.160,8.786 37.498,7.498 36.175,6.650 ZM67.266,27.239 C67.746,27.239 68.769,26.406 70.334,24.739 C71.266,23.739 71.732,22.694 71.732,21.603 C71.732,21.119 71.552,20.876 71.191,20.876 C70.619,20.876 69.596,21.861 68.123,23.830 C67.099,25.073 66.588,26.012 66.588,26.648 C66.588,27.042 66.814,27.239 67.266,27.239 ZM85.477,27.239 C85.957,27.239 86.981,26.406 88.545,24.739 C89.477,23.739 89.944,22.694 89.944,21.603 C89.944,21.119 89.763,20.876 89.402,20.876 C88.830,20.876 87.808,21.861 86.334,23.830 C85.311,25.073 84.800,26.012 84.800,26.648 C84.800,27.042 85.025,27.239 85.477,27.239 ZM122.558,27.239 C123.038,27.239 124.061,26.406 125.625,24.739 C126.557,23.739 127.024,22.694 127.024,21.603 C127.024,21.119 126.844,20.876 126.482,20.876 C125.911,20.876 124.888,21.861 123.415,23.830 C122.391,25.073 121.880,26.012 121.880,26.648 C121.880,27.042 122.106,27.239 122.558,27.239 Z" class="cls-1"/>
</svg>
