<svg xmlns="http://www.w3.org/2000/svg" xmlns:xlink="http://www.w3.org/1999/xlink" preserveAspectRatio="xMidYMid" width="33" height="23" viewBox="0 0 33 23">
  <defs>
    <style>
      .cls-1 {
        fill: #fff;
        fill-rule: evenodd;
      }
    </style>
  </defs>
  <path d="M30.800,23.000 L2.200,23.000 C0.985,23.000 -0.000,22.016 -0.000,20.803 L-0.000,2.197 C-0.000,0.984 0.985,-0.000 2.200,-0.000 L30.800,-0.000 C32.015,-0.000 33.000,0.984 33.000,2.197 L33.000,20.803 C33.000,22.016 32.015,23.000 30.800,23.000 ZM5.500,3.295 L3.300,3.295 L3.300,19.704 L5.500,19.704 L5.500,3.295 ZM7.700,3.295 L6.600,3.295 L6.600,17.576 L7.700,17.576 L7.700,3.295 ZM11.000,3.295 L9.900,3.295 L9.900,17.576 L11.000,17.576 L11.000,3.295 ZM14.300,3.295 L12.100,3.295 L12.100,17.576 L14.300,17.576 L14.300,3.295 ZM16.500,3.295 L15.400,3.295 L15.400,17.576 L16.500,17.576 L16.500,3.295 ZM20.900,3.295 L18.700,3.295 L18.700,17.576 L20.900,17.576 L20.900,3.295 ZM23.100,3.295 L22.000,3.295 L22.000,17.576 L23.100,17.576 L23.100,3.295 ZM26.400,3.295 L25.300,3.295 L25.300,17.576 L26.400,17.576 L26.400,3.295 ZM29.700,3.295 L27.500,3.295 L27.500,19.704 L29.700,19.704 L29.700,3.295 Z" class="cls-1"/>
</svg>
